<?xml version="1.0" encoding="utf-8"?>
<!-- Generator: Adobe Illustrator 19.2.1, SVG Export Plug-In . SVG Version: 6.00 Build 0)  -->
<svg version="1.1" id="Ebene_1" xmlns="http://www.w3.org/2000/svg"  x="0px" y="0px"
	 viewBox="0 0 270 240.6" style="enable-background:new 0 0 270 240.6;" xml:space="preserve">
<style type="text/css">
	.st0{fill:rgba(255,255,255,0.8);opacity:0.8;}
</style>
<title>logo5</title>
<g>
	<path class="st0" d="M25.3,189.5c8.3,2.8,18.4,4.2,30.4,4.2c26.8,0,40.1-9.2,40.1-27.5c0.2-5-1.1-10-3.6-14.4
		c-2.5-4.1-5.8-7.6-9.6-10.3c-4.3-3-9-5.6-13.9-7.5c-5.2-2.1-10.7-4.2-16.5-6.3c-6.5-2.2-12.8-4.8-19-7.8
		c-5.7-2.7-10.9-6.1-15.6-10.3c-0.4-0.3-0.7-0.7-1.1-1l-9.2,73.5C13.1,185.1,19.1,187.5,25.3,189.5z"/>
	<path class="st0" d="M242.9,209.3c-4.9-9-10.5-16.8-16.9-25.2s-13.1-16.5-20.2-24.1s-14.3-14.8-21.6-21.3
		c-6.6-6.1-13.7-11.7-21.2-16.7v87.3h-24v-183h24v80.4c6-5.8,12-12.4,18.9-19.7s13.6-14.6,20.4-22s13-14.3,19-21s11-12.6,15.1-17.6
		H265c-5.1,6-10.8,12.4-17.2,19.7s-13,14.7-20,22.3s-13.8,15-20.7,22.4s-13.3,14.2-19.4,20.6c7.9,6,15.3,12.5,22.3,19.5
		c7.9,7.7,15.5,16,23.1,24.8c5.3,6.1,10.3,12.4,15.1,18.7L270,0L30,0.7l-4.2,33.3c10.2-6.1,23.2-9.2,39-9.2
		c10.2-0.1,20.4,1.1,30.2,3.6c9.1,2.4,15.7,5,19.9,7.8L106.8,57c-3.7-2.3-9.2-4.5-16.5-6.7c-8.3-2.3-16.9-3.4-25.5-3.3
		c-4.6,0-9.2,0.5-13.7,1.6c-4,0.9-7.7,2.5-11.1,4.7c-3.1,2.1-5.7,4.8-7.5,8.1c-1.9,3.5-2.9,7.5-2.8,11.5c-0.2,4.3,0.9,8.6,2.9,12.4
		c2.1,3.5,4.9,6.5,8.2,8.8c3.8,2.7,8,5.1,12.3,7c4.7,2.1,9.8,4.2,15.4,6.3c7.9,3.2,15.2,6.3,21.8,9.5c6.2,2.9,12,6.8,17.2,11.3
		c4.8,4.4,8.6,9.7,11.2,15.7c2.7,6.1,4,13.4,4,22c0,16-5.9,28.3-17.6,37s-28.2,13-49.5,12.9c-6.7,0-13.3-0.4-19.9-1.5
		c-5.5-0.8-10.9-2-16.2-3.4c-4.2-1.1-8.3-2.5-12.3-4.2c-1-0.4-1.9-0.8-2.8-1.2L0,240.6l240-0.4l3.9-30.9H242.9L242.9,209.3z"/>
</g>
</svg>
